<?xml version="1.0" standalone="no"?><!DOCTYPE svg PUBLIC "-//W3C//DTD SVG 1.1//EN" "http://www.w3.org/Graphics/SVG/1.1/DTD/svg11.dtd"><svg t="1654012228369" class="icon" viewBox="0 0 1024 1024" version="1.1" xmlns="http://www.w3.org/2000/svg" p-id="17952" xmlns:xlink="http://www.w3.org/1999/xlink" width="200" height="200"><defs><style type="text/css">@font-face { font-family: feedback-iconfont; src: url("//at.alicdn.com/t/font_1031158_u69w8yhxdu.woff2?t=1630033759944") format("woff2"), url("//at.alicdn.com/t/font_1031158_u69w8yhxdu.woff?t=1630033759944") format("woff"), url("//at.alicdn.com/t/font_1031158_u69w8yhxdu.ttf?t=1630033759944") format("truetype"); }
</style></defs><path d="M183.883013 670.526513a63.537766 63.537766 0 1 0 63.452438-60.881915 62.193841 62.193841 0 0 0-63.452438 60.881915z m535.073958 60.881915a60.935245 60.935245 0 1 0-63.473769-60.881915 62.22584 62.22584 0 0 0 63.473769 60.881915z m-56.146181-260.988013h63.249782a42.408286 42.408286 0 0 1 6.282314 0.810621 38.931148 38.931148 0 0 1 5.066382-0.810621h105.807393c35.038033 0 84.635248 53.564993 84.635248 87.056445v14.089876c0 22.02543-25.385241 20.47885-57.650096 20.265528a158.775085 158.775085 0 0 1 20.798832 78.480927c0 91.269542-76.998344 165.324051-172.022342 165.324051a173.163611 173.163611 0 0 1-151.532825-87.003115h-168.523872a173.504925 173.504925 0 0 1-151.788811 87.003115C151.93814 835.637242 74.790472 761.625398 74.790472 670.313191a162.732197 162.732197 0 0 1 72.753248-134.488449 57.756757 57.756757 0 0 1-1.589244-13.183259l39.837763-63.676425c-33.768771-17.065708-55.98619-48.0933-55.98619-75.782412v-21.758778a66.12962 66.12962 0 0 1 66.908244-65.233671h137.592275c28.243748-29.310354 75.985067-62.9298 99.813062-49.682544 30.46229 16.863053 20.07354 61.92719 7.860892 90.106941l-22.206753 53.84231v14.473854a65.063014 65.063014 0 0 1-48.49861 62.353833c-30.931597 110.052488 87.248435 167.905239 164.065455 85.979172a97.765178 97.765178 0 0 0 6.986274-13.801892c0.35198 0.287984 0.501305 0.426643 0.469307 0.362647 26.942487-58.53538 94.000056-67.964184 120.121256-69.329441z m215.45457-52.455722h-246.279506a64.572375 64.572375 0 0 1-67.196227-61.62854V253.643252a64.561708 64.561708 0 0 1 67.196227-61.628539h246.279506a64.583041 64.583041 0 0 1 67.196227 61.628539v102.692901a64.604373 64.604373 0 0 1-67.196227 61.62854z m0 0" fill="#1C87FF" p-id="17953"></path></svg>